<svg xmlns="http://www.w3.org/2000/svg" viewBox="0 0 566.3 91.98"><defs><style>.cls-1{fill:none;}.cls-2{clip-path:url(#clip-path-logo);}.cls-3{fill:#243165;}</style><clipPath id="clip-path-logo"><rect class="cls-1" x="118.27" width="448.02" height="70.38"/></clipPath></defs><title>Logo Katholische Universität Eichstätt-Ingolstadt</title><g><g class="cls-2"><path class="cls-3" d="M566.3,53c-.23-2-.32-3.61-.36-5.18H545.78c-.07,1.87-.21,3.24-.4,5.28h1.08A10.43,10.43,0,0,1,547.65,50c.48-.75,1.22-1.05,4.3-1.05h2.3V65.69c0,2.68-.3,3-3.67,3.23v1h10.6v-1c-3.48-.21-3.78-.55-3.78-3.23V48.94H560c2.82,0,3.41.27,4,1.08a8,8,0,0,1,1.15,3ZM525,51.28c0-1.36.15-1.73.49-1.94a5.94,5.94,0,0,1,2.89-.44,12.74,12.74,0,0,1,6.3,1.39c3,1.6,4.38,4.66,4.38,8.16,0,5.44-3.23,10.2-10.13,10.2-2.7,0-3.93-.65-3.93-3.23Zm-6.3-3.5v.95c2.86.21,3.15.34,3.15,3.26V65.66c0,2.88-.29,3.09-3.48,3.29v.92h8.75c4.52,0,8.23-.85,11-2.82A10.55,10.55,0,0,0,542.71,58a9.5,9.5,0,0,0-3.15-7.31c-2.3-2-5.75-2.89-10.46-2.89ZM506.18,60.35h-6.83c1.15-2.78,2.3-5.77,3.49-8.66h.07Zm9.45,9.52v-1c-2.41-.21-2.93-.51-4.08-3.43-2.37-5.92-4.67-11.91-7-17.72h-1.43l-7.58,17.61c-1.26,3-1.78,3.23-4.15,3.54v1h8.08v-1c-2.82-.24-3.11-.58-2.33-2.72.48-1.43,1-2.85,1.63-4.39h7.89c.82,2.08,1.56,3.91,2,5.24s.15,1.6-2.18,1.87v1ZM491.45,53c-.22-2-.33-3.61-.37-5.18H471c-.07,1.87-.23,3.24-.41,5.28h1.07A10.72,10.72,0,0,1,472.8,50c.48-.75,1.22-1.05,4.3-1.05h2.3V65.69c0,2.68-.3,3-3.67,3.23v1h10.6v-1c-3.48-.21-3.78-.55-3.78-3.23V48.94h2.59c2.82,0,3.42.27,4.05,1.08a8.18,8.18,0,0,1,1.14,3Zm-24.37-.21c-.29-2.14-.48-3.5-.63-4.69a17,17,0,0,0-4.67-.78c-4.78,0-7.64,2.79-7.64,6,0,3.84,3.75,5.51,6.12,6.7,2.78,1.35,4.82,2.54,4.82,5.06s-1.63,4.08-4.45,4.08c-3.86,0-5.52-3.44-6.08-5.51l-1.11.24c.26,1.63.74,4.55,1,5.27a11.68,11.68,0,0,0,1.85.71,13.71,13.71,0,0,0,3.64.51c4.93,0,8.23-2.86,8.23-6.42,0-3.84-3.49-5.41-6.42-6.8s-4.71-2.55-4.71-5c0-1.84,1.27-3.7,4.12-3.7,3.23,0,4.23,2.34,4.86,4.48ZM449.57,64.33a9.14,9.14,0,0,1-1.89,3.33c-.85.88-2.12,1-4.15,1a8.84,8.84,0,0,1-3.56-.44c-.67-.34-.85-1-.85-2.85V52c0-2.92.33-3.05,3.26-3.26v-.95H432.7v.95c3,.21,3.26.38,3.26,3.26v13.6c0,2.89-.3,3.12-3.41,3.33v1h16.79c.34-1.06,1.12-4.28,1.34-5.34ZM417.62,48.49c4.9,0,9,3.81,9,11,0,6.53-3.67,9.69-7.82,9.69-5.22,0-9-4.66-9-11s3.78-9.62,7.89-9.62m.82-1.22C410.62,47.27,406,53,406,59.06c0,6.56,5.33,11.32,12,11.32s12.39-4.49,12.39-11.83c0-6.83-5.67-11.28-11.94-11.28M402.92,59.61H393.5v1c3.67.24,3.89.47,3.89,2.92v2.89c0,1.43-.44,1.87-1.19,2.24a8.06,8.06,0,0,1-3.22.58c-7.15,0-10.31-5.71-10.31-10.64,0-6.25,4.16-10.09,9.83-10.09,3.56,0,6.34,1.12,7.23,5.3l1-.2c-.27-2.24-.45-4.11-.56-5.3a33.79,33.79,0,0,0-7.16-1c-7.26,0-14.16,3.84-14.16,11.69,0,6.76,5.45,11.42,13.61,11.42a41.81,41.81,0,0,0,8.3-1.22,14.73,14.73,0,0,1-.26-3.23V63c0-2,.15-2.17,2.38-2.44Zm-26-11.83h-8.75v.95c2.59.1,3.45.55,3.63,2.11a38.68,38.68,0,0,1,.26,5.64v8.36h-.11L356.45,47.78H355V60.9a56.11,56.11,0,0,1-.22,5.81c-.19,1.66-1.15,2.1-3.27,2.21v1h8.79v-1c-2.52-.14-3.38-.55-3.56-2.28a52.91,52.91,0,0,1-.22-5.74V52.37h.07l15.79,17.8h1.15V56.48a43.45,43.45,0,0,1,.23-5.74c.14-1.46,1-1.91,3.11-2Zm-28.4,22.09V68.73c-3.17-.24-3.48-.44-3.48-3.93V48.58c0-3.44.31-3.69,3.48-3.93V43.51H338.27v1.14c3.17.24,3.48.49,3.48,3.93V64.8c0,3.45-.31,3.69-3.48,3.93v1.14Zm-16.22-13.1H317.76v2.09h14.53ZM312.16,53c-.22-2-.35-3.61-.39-5.18H291.64c-.07,1.87-.2,3.24-.38,5.28h1.07A10.43,10.43,0,0,1,293.52,50c.48-.75,1.22-1.05,4.3-1.05h2.3V65.69c0,2.68-.3,3-3.67,3.23v1h10.6v-1c-3.49-.21-3.78-.55-3.78-3.23V48.94h2.59c2.82,0,3.41.27,4,1.08a8,8,0,0,1,1.15,3Zm-23.68,0c-.22-2-.36-3.61-.39-5.18H268c-.08,1.87-.21,3.24-.39,5.28h1.07A10.72,10.72,0,0,1,269.83,50c.48-.75,1.22-1.05,4.3-1.05h2.3V65.69c0,2.68-.3,3-3.67,3.23v1h10.6v-1c-3.48-.21-3.78-.55-3.78-3.23V48.94h2.59c2.82,0,3.42.27,4.05,1.08a8.18,8.18,0,0,1,1.14,3ZM252.23,42.89a1.67,1.67,0,1,0,0,3.33,1.67,1.67,0,1,0,0-3.33m7.08,0a1.67,1.67,0,1,0,0,3.33,1.67,1.67,0,1,0,0-3.33m-1.15,17.46h-6.78c1.11-2.78,2.26-5.77,3.44-8.66h.08Zm9.45,9.52v-1c-2.41-.21-2.93-.51-4.07-3.43-2.38-5.92-4.66-11.91-7-17.72h-1.43L247.6,65.38c-1.3,3-1.82,3.23-4.19,3.54v1h8.08v-1c-2.82-.24-3.12-.58-2.34-2.72.52-1.43,1-2.85,1.63-4.39h7.9c.82,2.08,1.52,3.91,2,5.24s.15,1.6-2.19,1.87v1ZM243.43,53c-.22-2-.34-3.61-.37-5.18H222.9c-.08,1.87-.19,3.24-.38,5.28h1.08A10.43,10.43,0,0,1,224.79,50c.48-.75,1.22-1.05,4.3-1.05h2.3V65.69c0,2.68-.3,3-3.68,3.23v1h10.61v-1c-3.49-.21-3.78-.55-3.78-3.23V48.94h2.59c2.82,0,3.41.27,4,1.08a8,8,0,0,1,1.15,3Zm-24.36-.21c-.3-2.14-.49-3.5-.63-4.69a17,17,0,0,0-4.68-.78c-4.78,0-7.63,2.79-7.63,6,0,3.84,3.74,5.51,6.12,6.7,2.78,1.35,4.81,2.54,4.81,5.06s-1.63,4.08-4.44,4.08c-3.86,0-5.53-3.44-6.08-5.51l-1.12.24c.26,1.63.75,4.55,1,5.27a11.68,11.68,0,0,0,1.85.71,13.63,13.63,0,0,0,3.63.51c4.93,0,8.23-2.86,8.23-6.42,0-3.84-3.48-5.41-6.41-6.8s-4.71-2.55-4.71-5c0-1.84,1.26-3.7,4.11-3.7,3.23,0,4.23,2.34,4.86,4.48Zm-16.45-5h-9.68v.95c2.89.24,3.19.41,3.19,3.23v5.51H183.49V52c0-2.82.3-3,3.11-3.23v-.95H177v.95c3,.21,3.34.38,3.34,3.23V65.69c0,2.85-.3,3-3.26,3.23v1h9.75v-1c-3-.21-3.34-.41-3.34-3.23V58.93h12.64v6.76c0,2.85-.3,3-3.48,3.23v1h9.93v-1c-3-.21-3.3-.38-3.3-3.23V52c0-2.82.3-3,3.34-3.23Zm-29,16.14c-1.85,3.37-3.85,5.24-7.64,5.24-5.63,0-9.71-4.35-9.71-10.71,0-5.16,3.3-10,9.49-10,4,0,6.23,1.47,7.23,5.07l1.08-.27c-.23-1.81-.45-3.2-.75-5.1a31.5,31.5,0,0,0-6.56-.92c-8.26,0-14.27,4.69-14.27,11.86,0,5.4,4,11.25,13.27,11.25a37.52,37.52,0,0,0,6.82-.88,36.83,36.83,0,0,0,2.12-5.24Zm-23.3,6v-1c-3-.21-3.34-.38-3.34-3.3V52c0-2.89.3-3.09,3.34-3.3v-.95h-9.83v.95c3,.21,3.34.41,3.34,3.3V65.62c0,2.89-.3,3.09-3.34,3.3v1ZM137.12,63.3a13.55,13.55,0,0,1-1.93,3.81c-.85,1.06-1.93,1.38-4.87,1.38-1.93,0-3.28,0-4-.53s-.93-1.38-.93-3.28V57h3.67c3.36,0,3.63.24,4.13,3.12h1.12V52.39h-1.12c-.46,2.72-.66,3-4.17,3h-3.63V46.19c0-1.18.08-1.3,1.27-1.3h2.94c2.78,0,3.82.29,4.36,1.18a10.22,10.22,0,0,1,1.24,3.44l1.12-.16c-.12-2.07-.32-4.79-.32-5.8H118.85v1.09c3,.24,3.25.41,3.25,4V64.8c0,3.33-.31,3.65-3.83,3.93v1.14h18.62c.34-1.26,1.12-5.07,1.35-6.41Z"/><path class="cls-3" d="M566.29,9.79c-.17-1.89-.35-3.54-.35-5H547.48c-.07,1.73-.22,3.09-.35,5.08h1A9.09,9.09,0,0,1,549.29,7c.44-.7,1.11-1,3.91-1h1.92V21.66c0,2.57-.26,2.89-3.3,3.08v.94h9.92v-.94c-3.17-.19-3.44-.51-3.44-3.08V6h2.22c2.46,0,3,.26,3.61,1a7.39,7.39,0,0,1,1.15,3ZM534.73,0A1.72,1.72,0,0,0,533,1.7a1.71,1.71,0,0,0,1.72,1.64,1.67,1.67,0,1,0,0-3.34m6.54,0a1.72,1.72,0,0,0-1.72,1.7,1.74,1.74,0,0,0,3.48,0A1.71,1.71,0,0,0,541.27,0M540,16.79h-6c1-2.6,2-5.3,3.06-8h.1Zm8.88,8.89v-.94c-2.2-.22-2.67-.54-3.72-3.3-2.16-5.55-4.24-11.11-6.34-16.63h-1.42l-6.88,16.6c-1.18,2.82-1.62,3.05-3.81,3.33v.94h7.39v-.94c-2.53-.25-2.77-.57-2.09-2.53.44-1.32.91-2.63,1.41-4h7.09c.71,1.86,1.35,3.5,1.75,4.71s.17,1.58-1.92,1.83v.94ZM528.39,9.79c-.16-1.89-.31-3.54-.31-5H509.59c-.06,1.73-.22,3.09-.36,5.08h1A8.86,8.86,0,0,1,511.4,7c.43-.7,1.11-1,3.91-1h1.92V21.66c0,2.57-.27,2.89-3.31,3.08v.94h9.92v-.94c-3.17-.19-3.44-.51-3.44-3.08V6h2.23c2.46,0,3,.26,3.61,1a7.39,7.39,0,0,1,1.15,3ZM506.7,25.68v-.94c-2.7-.19-3-.38-3-3.11V8.89c0-2.73.3-2.92,3-3.14V4.81h-9.14v.94c2.7.22,3,.41,3,3.14V21.63c0,2.73-.3,2.92-3,3.11v.94ZM494.5,9.56c-.27-2-.47-3.3-.61-4.46a14.54,14.54,0,0,0-4.32-.77c-4.42,0-7.08,2.67-7.08,5.81,0,3.53,3.24,5.17,5.63,6.36s4.32,2.44,4.32,4.71S491,25,488.49,25c-3.44,0-5-3.31-5.56-5.3l-1.05.26a37.32,37.32,0,0,0,.91,5.07,12.58,12.58,0,0,0,1.76.68,11.49,11.49,0,0,0,3.3.48c4.59,0,7.62-2.73,7.62-6.16s-3-5.08-5.83-6.42-4.28-2.41-4.28-4.66A3.4,3.4,0,0,1,489,5.46c2.86,0,3.84,2.27,4.45,4.3Zm-27.32,6V7.73c0-.8.07-1.18.3-1.44a2.58,2.58,0,0,1,1.72-.38c2.43,0,4.76,1.28,4.76,4.75a4.52,4.52,0,0,1-1.75,3.94,5.42,5.42,0,0,1-3.61.93ZM482,26.61a9.85,9.85,0,0,1-3-2.73,80.41,80.41,0,0,1-5.94-8.15c2.43-1,4.35-2.83,4.35-5.65a4.72,4.72,0,0,0-2.22-4.17,10.25,10.25,0,0,0-5.44-1.1h-8.6v.94c2.63.22,2.9.35,2.9,3.08v12.8c0,2.7-.27,2.92-3,3.11v.94h9.15v-.94c-2.7-.19-3-.38-3-3.11v-5H468c1.45,0,2.19.33,2.77,1.19,1,1.58,2.59,3.85,3.84,5.62,2,2.6,3.28,3.63,5.8,3.91a11.53,11.53,0,0,0,1.36.13Zm-24.15-6.2a10.63,10.63,0,0,1-1.72,3.05c-.75.8-1.73,1.06-4.15,1.06-1.62,0-2.8,0-3.44-.39s-.81-1.12-.81-2.63V15.57h3c2.93,0,3.21.19,3.64,2.47h1v-6.2h-1c-.4,2.15-.63,2.41-3.64,2.41h-3V7c0-1,.1-1.06,1.18-1.06h2.39c2.33,0,3.24.22,3.75.93a7.59,7.59,0,0,1,1.11,2.73l1.05-.16c-.14-1.7-.31-3.89-.31-4.66H441.74v.94c2.56.22,2.87.35,2.87,3.2V21.63c0,2.63-.31,2.89-3.34,3.11v.94h16.46c.27-1,1-4,1.15-5.11ZM439.18,4.81h-7.66v1c2.73.29,2.9.58,2.22,2.5-1,3.15-3.37,8.92-5.12,13.06h-.07C426.49,16.27,424,10,423.09,7.67c-.51-1.38-.44-1.64,2-1.89v-1h-8.61v1c2,.19,2.57.48,3.58,2.88,1.82,4.4,4.69,11.46,6.95,17.34h1.14c2.57-6.61,6.05-14.61,7-16.76,1.28-2.92,1.75-3.24,4.05-3.46ZM414,25.68v-.94c-2.7-.19-3-.38-3-3.11V8.89c0-2.73.3-2.92,3-3.14V4.81h-9.14v.94c2.7.22,3,.41,3,3.14V21.63c0,2.73-.3,2.92-3,3.11v.94ZM402.19,4.81h-8v.94c2.4.12,3.17.57,3.34,2a43.93,43.93,0,0,1,.24,5.33v7.48h-.1L383.77,4.81h-1.55V17.2a50.36,50.36,0,0,1-.24,5.46c-.16,1.54-1,2-2.93,2.08v.94h8v-.94c-2.33-.12-3.07-.57-3.24-2.15a51.61,51.61,0,0,1-.2-5.39V9.31h.06L398,26h1.15V13.06a52.07,52.07,0,0,1,.2-5.39c.17-1.41.94-1.83,2.83-1.92Zm-22.6-4h-8.68V1.86c2.59.19,3.35.65,3.54,2.14a53.17,53.17,0,0,1,.25,6.32v2.87c0,6.32-1.64,11-6.89,11-4.53,0-6.86-3.56-6.86-9.72V5.72c0-3.44.29-3.67,3.14-3.86V.78h-9.41V1.86c2.84.27,3.17.42,3.17,3.86v9.54c0,4.52,1,7.35,3.21,9.11a9.1,9.1,0,0,0,5.84,1.84,8.85,8.85,0,0,0,6.56-2.64c2.08-2.34,2.74-5.59,2.74-10.11V10.32a59.33,59.33,0,0,1,.22-6.21c.14-1.6,1-2.1,3.17-2.25ZM343.23,20.41a10.17,10.17,0,0,1-1.72,3.05c-.74.8-1.72,1.06-4.15,1.06-1.62,0-2.8,0-3.44-.39s-.81-1.12-.81-2.63V15.57h3c2.93,0,3.2.19,3.64,2.47h1v-6.2h-1c-.4,2.15-.64,2.41-3.64,2.41h-3V7c0-1,.1-1.06,1.18-1.06h2.4c2.33,0,3.24.22,3.74.93a7.58,7.58,0,0,1,1.12,2.73l1-.16c-.13-1.7-.3-3.89-.3-4.66H327.11v.94C329.67,6,330,6.1,330,9V21.63c0,2.63-.3,2.89-3.33,3.11v.94H343.1c.27-1,1-4,1.14-5.11ZM323.92,4.81h-9v.94c2.6.22,2.87.41,2.87,3.08v5.1H306.68V8.83c0-2.7.27-2.86,2.8-3.08V4.81h-9v.94c2.76.22,3,.38,3,3.08V21.66c0,2.7-.27,2.86-2.93,3.08v.94h9.07v-.94c-2.7-.22-3-.38-3-3.08V15.34h11.07v6.32c0,2.7-.27,2.86-3.11,3.08v.94h9.28v-.94c-2.73-.22-3-.38-3-3.08V8.83c0-2.7.27-2.86,3-3.08ZM297.46,20c-1.72,3.17-3.54,4.94-6.88,4.94-5.06,0-8.67-4.08-8.67-10,0-4.84,2.93-9.34,8.43-9.34,3.48,0,5.6,1.32,6.51,4.78l1-.22c-.2-1.77-.44-3.11-.71-4.91a27.51,27.51,0,0,0-6-.87c-7.66,0-13.09,4.46-13.09,11.2,0,5.08,3.71,10.63,12.21,10.63a29.89,29.89,0,0,0,6.21-.87,34.69,34.69,0,0,0,1.92-4.94Zm-23-10.44c-.27-2-.47-3.3-.61-4.46a14.6,14.6,0,0,0-4.32-.77c-4.42,0-7.08,2.67-7.08,5.81,0,3.53,3.24,5.17,5.63,6.36s4.32,2.44,4.32,4.71S271,25,268.48,25c-3.44,0-5-3.31-5.56-5.3l-1.05.26a37.32,37.32,0,0,0,.91,5.07,12.58,12.58,0,0,0,1.76.68,11.49,11.49,0,0,0,3.3.48c4.59,0,7.63-2.73,7.63-6.16s-3-5.08-5.84-6.42-4.28-2.41-4.28-4.66A3.4,3.4,0,0,1,269,5.46c2.87,0,3.85,2.27,4.46,4.3ZM259.37,25.68v-.94c-2.7-.19-3-.38-3-3.11V8.89c0-2.73.31-2.92,3-3.14V4.81h-9.15v.94c2.7.22,3,.41,3,3.14V21.63c0,2.73-.31,2.92-3,3.11v.94ZM247.2,20.35a9,9,0,0,1-1.76,3.17c-.77.84-1.92,1-3.71,1a7.2,7.2,0,0,1-3.1-.39c-.64-.32-.81-.93-.81-2.63V8.86c0-2.76.34-2.92,3-3.11V4.81h-9.08v.94c2.74.22,3,.38,3,3.11V21.6c0,2.73-.3,2.95-3.14,3.14v.94H247c.3-1,1-4.05,1.21-5.11ZM218.32,5.52c4.35,0,7.86,3.63,7.86,10.33,0,6.14-3.2,9.12-6.85,9.12-4.69,0-8-4.46-8-10.37s3.3-9.08,7-9.08M219,4.33a11,11,0,0,0-11.44,11.11c0,6.16,4.86,10.72,11.06,10.72S230,21.92,230,15c0-6.42-5.13-10.66-11-10.66m-13.2.48h-9v.94c2.6.22,2.87.41,2.87,3.08v5.1H188.56V8.83c0-2.7.27-2.86,2.8-3.08V4.81h-9v.94c2.77.22,3,.38,3,3.08V21.66c0,2.7-.27,2.86-2.93,3.08v.94h9.07v-.94c-2.7-.22-3-.38-3-3.08V15.34h11.07v6.32c0,2.7-.27,2.86-3.11,3.08v.94h9.28v-.94c-2.73-.22-3-.38-3-3.08V8.83c0-2.7.27-2.86,3-3.08Zm-26,5c-.17-1.89-.31-3.54-.31-5H161.05c-.07,1.73-.23,3.09-.36,5.08h1A9.09,9.09,0,0,1,162.85,7c.44-.7,1.11-1,3.91-1h1.92V21.66c0,2.57-.27,2.89-3.3,3.08v.94h9.92v-.94c-3.18-.19-3.45-.51-3.45-3.08V6h2.23c2.46,0,3,.26,3.61,1a7.39,7.39,0,0,1,1.15,3Zm-26.3,7h-6c1-2.6,2-5.3,3.07-8h.1Zm8.87,8.89v-.94c-2.19-.22-2.66-.54-3.71-3.3-2.16-5.55-4.23-11.11-6.33-16.63H151l-6.89,16.6c-1.18,2.82-1.29,3-3.48,3.31v1h7.06v-.94c-2.53-.25-2.77-.57-2.09-2.53.43-1.32.91-2.63,1.41-4h7.09c.71,1.86,1.35,3.5,1.75,4.71s.17,1.58-1.92,1.83v.94ZM140.8,26.85a20.79,20.79,0,0,1-5.14-4.65c-2.73-3.22-4-6.86-6.63-10.69,2.23-2.53,4.85-5.4,6.35-6.9,2.11-2.06,2.84-2.48,5.65-2.75V.78h-9V1.86l.84.11c1.75.23,1.89.65,1.09,1.72a75.79,75.79,0,0,1-6.2,7.32,5.14,5.14,0,0,1-2.59,1.65V5.72c0-3.44.29-3.63,3.14-3.86V.78h-9.41V1.86c2.91.23,3.21.46,3.21,3.86V20.77c0,3.37-.45,3.6-3.22,3.83v1.07h9.6V24.6c-3-.23-3.32-.46-3.32-3.83v-7a1.79,1.79,0,0,1,2.26.92c2.41,3.41,3.52,6.63,5.75,9.31,2.31,2.5,3.19,3,5.29,3.56a12.25,12.25,0,0,0,1.67.28Z"/></g><rect class="cls-3" y="0.76" width="39.86" height="39.55"/><rect class="cls-3" x="58.96" y="0.76" width="39.86" height="39.55"/><path class="cls-3" d="M47.5,92V51.25a9.72,9.72,0,0,1-3.64-1.56L15.25,78.3A49.2,49.2,0,0,0,47.5,92Z"/><path class="cls-3" d="M86,75.8A49.15,49.15,0,0,0,98.8,43.51H58.87a9.69,9.69,0,0,1-1.49,3.68Z"/><path class="cls-3" d="M54.8,49.78a9.53,9.53,0,0,1-3.64,1.5V92A49.24,49.24,0,0,0,83.44,78.42Z"/><path class="cls-3" d="M41.33,47a9.63,9.63,0,0,1-1.39-3.53H0A49.17,49.17,0,0,0,12.7,75.67Z"/></g></svg>
