<svg xmlns="http://www.w3.org/2000/svg" viewBox="0 0 100 92">
  <rect fill="#243165" y="0.76" width="39.86" height="39.55"/>
  <rect fill="#243165" x="58.96" y="0.76" width="39.86" height="39.55"/>
  <path fill="#243165" d="M47.5,92V51.25a9.72,9.72,0,0,1-3.64-1.56L15.25,78.3A49.2,49.2,0,0,0,47.5,92Z"/>
  <path fill="#243165" d="M86,75.8A49.15,49.15,0,0,0,98.8,43.51H58.87a9.69,9.69,0,0,1-1.49,3.68Z"/>
  <path fill="#243165" d="M54.8,49.78a9.53,9.53,0,0,1-3.64,1.5V92A49.24,49.24,0,0,0,83.44,78.42Z"/>
  <path fill="#243165" d="M41.33,47a9.63,9.63,0,0,1-1.39-3.53H0A49.17,49.17,0,0,0,12.7,75.67Z"/>
</svg>
